# xmcd CD Database Entry
#
# Track frame offsets:
# 150
# 15287
# 32390
# 48329
# 65592
# 80414
# 96434
# 110267
# 127458
# 143769
# 162263
# 181669
# 196158
#
# Disc length: 2826 seconds
#
# Revision: 1
# Processed by: cddbd v1.5.2PL0 Copyright (c) Steve Scherf et al.
# Submitted via: RSJCDWriter_freedb_lib_OS/2 1.03
#
DISCID=a40b080d
DTITLE=Jeanette - Undress To The Beat
DYEAR=1900
DGENRE=blues
TTITLE0=No Rules
TTITLE1=Undress To The Beat
TTITLE2=Chasing A Thrill
TTITLE3=Teach Me How Say Goodbye
TTITLE4=Wild At That
TTITLE5=Feline
TTITLE6=Solitairy Rose
TTITLE7=Freak Out
TTITLE8=In Or Out
TTITLE9=I Feel Love
TTITLE10=Material Boy (Don't Look Back)
TTITLE11=This Love
TTITLE12=All Mine
EXTD=
EXTT0=
EXTT1=
EXTT2=
EXTT3=
EXTT4=
EXTT5=
EXTT6=
EXTT7=
EXTT8=
EXTT9=
EXTT10=
EXTT11=
EXTT12=
PLAYORDER=
